<svg width="121" height="139" viewBox="0 0 121 139" fill="none" xmlns="http://www.w3.org/2000/svg">
<path d="M81 46C81 44.8954 81.8954 44 83 44H106C107.105 44 108 44.8954 108 46V134C108 136.761 105.761 139 103 139H81V46Z" fill="url(#paint0_linear_4_5)"/>
<path d="M0 71C0 69.8954 0.895431 69 2 69H25C26.1046 69 27 69.8954 27 71V139H4C1.79086 139 0 137.209 0 135V71Z" fill="url(#paint1_linear_4_5)"/>
<path d="M54 80C54 78.8954 54.8954 78 56 78H79C80.1046 78 81 78.8954 81 80V139H54V80Z" fill="url(#paint2_linear_4_5)"/>
<path d="M27 56C27 54.8954 27.8954 54 29 54H52C53.1046 54 54 54.8954 54 56V139H27V56Z" fill="url(#paint3_linear_4_5)"/>
<path d="M9.67846 58.4085C9.67846 58.4085 17.4812 48.5073 22.4808 42.1631C27.4805 35.8189 35.2832 25.9177 35.2832 25.9177L47.1776 34.2333L59.072 42.5488L73.3405 16.0364L83.1562 23.8603L92.972 31.6842L102.613 16.3449" stroke="url(#paint4_linear_4_5)" stroke-width="5" stroke-linecap="round" stroke-dasharray="10 10"/>
<path d="M106.217 7.48973C107.595 6.80216 109.2 7.86367 109.107 9.40044L108.687 16.3159C108.594 17.8527 106.872 18.7121 105.588 17.8629L99.8085 14.0415C98.5243 13.1923 98.641 11.2714 100.018 10.5838L106.217 7.48973Z" fill="#27CE4B"/>
<defs>
<linearGradient id="paint0_linear_4_5" x1="94" y1="85.5" x2="94.5" y2="139" gradientUnits="userSpaceOnUse">
<stop stop-color="#CC1212"/>
<stop offset="1" stop-color="#660909"/>
</linearGradient>
<linearGradient id="paint1_linear_4_5" x1="13.5" y1="69" x2="13.5" y2="139" gradientUnits="userSpaceOnUse">
<stop stop-color="#1818BD"/>
<stop offset="0.505" stop-color="#12128A"/>
<stop offset="1" stop-color="#0B0B57"/>
</linearGradient>
<linearGradient id="paint2_linear_4_5" x1="67.5" y1="78" x2="67.5" y2="139" gradientUnits="userSpaceOnUse">
<stop stop-color="#1818BD"/>
<stop offset="0.505" stop-color="#12128A"/>
<stop offset="1" stop-color="#0B0B57"/>
</linearGradient>
<linearGradient id="paint3_linear_4_5" x1="40" y1="97" x2="40.5" y2="139" gradientUnits="userSpaceOnUse">
<stop stop-color="#CC1212"/>
<stop offset="1" stop-color="#660909"/>
</linearGradient>
<linearGradient id="paint4_linear_4_5" x1="70.6256" y1="22.4301" x2="3.04501" y2="65.9307" gradientUnits="userSpaceOnUse">
<stop offset="0.07" stop-color="#27CE4B"/>
<stop offset="0.485" stop-color="#4BA042"/>
<stop offset="0.9" stop-color="#1B3A18"/>
</linearGradient>
</defs>
</svg>
